ffmpeg started on 2015-06-30 at 23:22:13
Report written to "pcm_test_alaw_ar-44100_ac-4.txt"
Command line:
ffmpeg -y -f lavfi -i sine -c:a pcm_alaw -ar 44100 -ac 4 -t 1 pcm_test_alaw_ar-44100_ac-4.mka
ffmpeg version 2.6.3 Copyright (c) 2000-2015 the FFmpeg developers
  built with Apple LLVM version 6.1.0 (clang-602.0.49) (based on LLVM 3.6.0svn)
  configuration: --prefix=/usr/local/Cellar/ffmpeg/2.6.3 --enable-shared --enable-pthreads --enable-gpl --enable-version3 --enable-hardcoded-tables --enable-avresample --cc=clang --host-cflags= --host-ldflags= --enable-libx264 --enable-libmp3lame --enable-libvo-aacenc --enable-libxvid --enable-libfaac --enable-ffplay --enable-nonfree --enable-vda
  libavutil      54. 20.100 / 54. 20.100
  libavcodec     56. 26.100 / 56. 26.100
  libavformat    56. 25.101 / 56. 25.101
  libavdevice    56.  4.100 / 56.  4.100
  libavfilter     5. 11.102 /  5. 11.102
  libavresample   2.  1.  0 /  2.  1.  0
  libswscale      3.  1.101 /  3.  1.101
  libswresample   1.  1.100 /  1.  1.100
  libpostproc    53.  3.100 / 53.  3.100
Splitting the commandline.
Reading option '-y' ... matched as option 'y' (overwrite output files) with argument '1'.
Reading option '-f' ... matched as option 'f' (force format) with argument 'lavfi'.
Reading option '-i' ... matched as input file with argument 'sine'.
Reading option '-c:a' ... matched as option 'c' (codec name) with argument 'pcm_alaw'.
Reading option '-ar' ... matched as option 'ar' (set audio sampling rate (in Hz)) with argument '44100'.
Reading option '-ac' ... matched as option 'ac' (set number of audio channels) with argument '4'.
Reading option '-t' ... matched as option 't' (record or transcode "duration" seconds of audio/video) with argument '1'.
Reading option 'pcm_test_alaw_ar-44100_ac-4.mka' ... matched as output file.
Finished splitting the commandline.
Parsing a group of options: global .
Applying option y (overwrite output files) with argument 1.
Successfully parsed a group of options.
Parsing a group of options: input file sine.
Applying option f (force format) with argument lavfi.
Successfully parsed a group of options.
Opening an input file: sine.
detected 4 logical cores
[AVFilterGraph @ 0x7f9eb0403c00] query_formats: 2 queried, 3 merged, 0 already done, 0 delayed
[lavfi @ 0x7f9eb0808c00] All info found
Input #0, lavfi, from 'sine':
  Duration: N/A, start: 0.000000, bitrate: 705 kb/s
    Stream #0:0, 1, 1/44100: Audio: pcm_s16le, 44100 Hz, mono, s16, 705 kb/s
Successfully opened the file.
Parsing a group of options: output file pcm_test_alaw_ar-44100_ac-4.mka.
Applying option c:a (codec name) with argument pcm_alaw.
Applying option ar (set audio sampling rate (in Hz)) with argument 44100.
Applying option ac (set number of audio channels) with argument 4.
Applying option t (record or transcode "duration" seconds of audio/video) with argument 1.
Successfully parsed a group of options.
Opening an output file: pcm_test_alaw_ar-44100_ac-4.mka.
Successfully opened the file.
[graph 0 input from stream 0:0 @ 0x7f9eb04035e0] Setting 'time_base' to value '1/44100'
[graph 0 input from stream 0:0 @ 0x7f9eb04035e0] Setting 'sample_rate' to value '44100'
[graph 0 input from stream 0:0 @ 0x7f9eb04035e0] Setting 'sample_fmt' to value 's16'
[graph 0 input from stream 0:0 @ 0x7f9eb04035e0] Setting 'channel_layout' to value '0x4'
[graph 0 input from stream 0:0 @ 0x7f9eb04035e0] tb:1/44100 samplefmt:s16 samplerate:44100 chlayout:0x4
[audio format for output stream 0:0 @ 0x7f9eb0405c40] Setting 'sample_fmts' to value 's16'
[audio format for output stream 0:0 @ 0x7f9eb0405c40] Setting 'sample_rates' to value '44100'
[audio format for output stream 0:0 @ 0x7f9eb0405c40] Setting 'channel_layouts' to value '0x107'
[audio format for output stream 0:0 @ 0x7f9eb0405c40] auto-inserting filter 'auto-inserted resampler 0' between the filter 'Parsed_anull_0' and the filter 'audio format for output stream 0:0'
[AVFilterGraph @ 0x7f9eb04037e0] query_formats: 5 queried, 10 merged, 3 already done, 0 delayed
0.000000 
0.000000 
1.000000 
0.000000 
[auto-inserted resampler 0 @ 0x7f9eb04068c0] ch:1 chl:mono fmt:s16 r:44100Hz -> ch:4 chl:4.0 fmt:s16 r:44100Hz
Output #0, matroska, to 'pcm_test_alaw_ar-44100_ac-4.mka':
  Metadata:
    encoder         : Lavf56.25.101
    Stream #0:0, 0, 1/1000: Audio: pcm_alaw ([6][0][0][0] / 0x0006), 44100 Hz, 4.0, s16, 1411 kb/s
    Metadata:
      encoder         : Lavc56.26.100 pcm_alaw
Stream mapping:
  Stream #0:0 -> #0:0 (pcm_s16le (native) -> pcm_alaw (native))
Press [q] to stop, [?] for help
[matroska @ 0x7f9eb081b000] Writing block at offset 635, size 4096, pts 0, dts 0, duration 23, flags 128
[matroska @ 0x7f9eb081b000] Writing block at offset 4738, size 4096, pts 23, dts 23, duration 23, flags 128
[matroska @ 0x7f9eb081b000] Writing block at offset 8841, size 4096, pts 46, dts 46, duration 23, flags 128
[matroska @ 0x7f9eb081b000] Writing block at offset 12944, size 4096, pts 70, dts 70, duration 23, flags 128
[matroska @ 0x7f9eb081b000] Writing block at offset 17047, size 4096, pts 93, dts 93, duration 23, flags 128
[matroska @ 0x7f9eb081b000] Writing block at offset 21150, size 4096, pts 116, dts 116, duration 23, flags 128
[matroska @ 0x7f9eb081b000] Writing block at offset 25253, size 4096, pts 139, dts 139, duration 23, flags 128
[matroska @ 0x7f9eb081b000] Writing block at offset 29356, size 4096, pts 163, dts 163, duration 23, flags 128
[matroska @ 0x7f9eb081b000] Writing block at offset 33459, size 4096, pts 186, dts 186, duration 23, flags 128
[matroska @ 0x7f9eb081b000] Writing block at offset 37562, size 4096, pts 209, dts 209, duration 23, flags 128
[matroska @ 0x7f9eb081b000] Writing block at offset 41665, size 4096, pts 232, dts 232, duration 23, flags 128
[matroska @ 0x7f9eb081b000] Writing block at offset 45768, size 4096, pts 255, dts 255, duration 23, flags 128
[matroska @ 0x7f9eb081b000] Writing block at offset 49871, size 4096, pts 279, dts 279, duration 23, flags 128
[matroska @ 0x7f9eb081b000] Writing block at offset 53974, size 4096, pts 302, dts 302, duration 23, flags 128
[matroska @ 0x7f9eb081b000] Writing block at offset 58077, size 4096, pts 325, dts 325, duration 23, flags 128
[matroska @ 0x7f9eb081b000] Writing block at offset 62180, size 4096, pts 348, dts 348, duration 23, flags 128
[matroska @ 0x7f9eb081b000] Writing block at offset 66283, size 4096, pts 372, dts 372, duration 23, flags 128
[matroska @ 0x7f9eb081b000] Writing block at offset 70386, size 4096, pts 395, dts 395, duration 23, flags 128
[matroska @ 0x7f9eb081b000] Writing block at offset 74489, size 4096, pts 418, dts 418, duration 23, flags 128
[matroska @ 0x7f9eb081b000] Writing block at offset 78592, size 4096, pts 441, dts 441, duration 23, flags 128
[matroska @ 0x7f9eb081b000] Writing block at offset 82695, size 4096, pts 464, dts 464, duration 23, flags 128
[matroska @ 0x7f9eb081b000] Writing block at offset 86798, size 4096, pts 488, dts 488, duration 23, flags 128
[matroska @ 0x7f9eb081b000] Writing block at offset 90901, size 4096, pts 511, dts 511, duration 23, flags 128
[matroska @ 0x7f9eb081b000] Writing block at offset 95004, size 4096, pts 534, dts 534, duration 23, flags 128
[matroska @ 0x7f9eb081b000] Writing block at offset 99107, size 4096, pts 557, dts 557, duration 23, flags 128
[matroska @ 0x7f9eb081b000] Writing block at offset 103210, size 4096, pts 580, dts 580, duration 23, flags 128
[matroska @ 0x7f9eb081b000] Writing block at offset 107313, size 4096, pts 604, dts 604, duration 23, flags 128
[matroska @ 0x7f9eb081b000] Writing block at offset 111416, size 4096, pts 627, dts 627, duration 23, flags 128
[matroska @ 0x7f9eb081b000] Writing block at offset 115519, size 4096, pts 650, dts 650, duration 23, flags 128
[matroska @ 0x7f9eb081b000] Writing block at offset 119622, size 4096, pts 673, dts 673, duration 23, flags 128
[matroska @ 0x7f9eb081b000] Writing block at offset 123725, size 4096, pts 697, dts 697, duration 23, flags 128
[matroska @ 0x7f9eb081b000] Writing block at offset 127828, size 4096, pts 720, dts 720, duration 23, flags 128
[matroska @ 0x7f9eb081b000] Writing block at offset 131931, size 4096, pts 743, dts 743, duration 23, flags 128
[matroska @ 0x7f9eb081b000] Writing block at offset 136034, size 4096, pts 766, dts 766, duration 23, flags 128
[matroska @ 0x7f9eb081b000] Writing block at offset 140137, size 4096, pts 789, dts 789, duration 23, flags 128
[matroska @ 0x7f9eb081b000] Writing block at offset 144240, size 4096, pts 813, dts 813, duration 23, flags 128
[matroska @ 0x7f9eb081b000] Writing block at offset 148343, size 4096, pts 836, dts 836, duration 23, flags 128
[matroska @ 0x7f9eb081b000] Writing block at offset 152446, size 4096, pts 859, dts 859, duration 23, flags 128
[matroska @ 0x7f9eb081b000] Writing block at offset 156549, size 4096, pts 882, dts 882, duration 23, flags 128
[matroska @ 0x7f9eb081b000] Writing block at offset 160652, size 4096, pts 906, dts 906, duration 23, flags 128
[matroska @ 0x7f9eb081b000] Writing block at offset 164755, size 4096, pts 929, dts 929, duration 23, flags 128
[matroska @ 0x7f9eb081b000] Writing block at offset 168858, size 4096, pts 952, dts 952, duration 23, flags 128
[matroska @ 0x7f9eb081b000] Writing block at offset 172961, size 4096, pts 975, dts 975, duration 23, flags 128
[output stream 0:0 @ 0x7f9eb0405b00] EOF on sink link output stream 0:0:default.
No more output streams to write to, finishing.
[matroska @ 0x7f9eb081b000] Writing block at offset 177064, size 272, pts 998, dts 998, duration 2, flags 128
[matroska @ 0x7f9eb081b000] end duration = 1000
size=     173kB time=00:00:01.00 bitrate=1418.7kbits/s    
video:0kB audio:172kB subtitle:0kB other streams:0kB global headers:0kB muxing overhead: 0.534580%
Input file #0 (sine):
  Input stream #0:0 (audio): 45 packets read (92160 bytes); 45 frames decoded (46080 samples); 
  Total: 45 packets (92160 bytes) demuxed
Output file #0 (pcm_test_alaw_ar-44100_ac-4.mka):
  Output stream #0:0 (audio): 44 frames encoded (44100 samples); 44 packets muxed (176400 bytes); 
  Total: 44 packets (176400 bytes) muxed
45 frames successfully decoded, 0 decoding errors
[AVIOContext @ 0x7f9eb0405840] Statistics: 16 seeks, 56 writeouts
